<svg width="33" height="33" viewBox="0 0 33 33" fill="none" xmlns="http://www.w3.org/2000/svg">
<g clip-path="url(#clip0_647_4)">
<path d="M25.7714 20.1074C25.1308 18.7719 22.8392 16.9181 20.6252 15.127C19.3903 14.1288 18.2234 13.1849 17.4795 12.441C17.2931 12.2534 17.0144 12.1935 16.7682 12.2819C16.3099 12.4479 16.027 12.5757 15.804 12.6749C15.464 12.8272 15.3498 12.8789 14.8914 12.9252C14.6888 12.9456 14.5066 13.0544 14.3937 13.223C13.4321 14.6605 12.4366 14.5381 11.7716 14.3151C11.5594 14.2444 11.5213 14.1532 11.5009 14.0662C11.3581 13.4692 12.0749 12.0793 13.0037 11.1504C15.2137 8.93901 16.3534 8.38546 18.7606 9.46125C21.4915 10.6825 24.2278 11.6386 24.255 11.6481C24.6127 11.7719 24.9976 11.5842 25.1213 11.2292C25.2437 10.8743 25.0574 10.4867 24.7024 10.3629C24.6752 10.3534 21.9933 9.41637 19.3168 8.21818C16.1984 6.82416 14.4874 7.74216 12.0435 10.1875C11.1133 11.1177 9.84982 12.9999 10.1762 14.3804C10.3163 14.9679 10.7298 15.4031 11.3444 15.6057C12.8853 16.1144 14.2915 15.6275 15.3388 14.2376C15.7712 14.171 16.0065 14.073 16.3601 13.9139C16.4879 13.8568 16.6375 13.7902 16.8361 13.7099C17.6141 14.4402 18.664 15.2902 19.7696 16.1837C21.7688 17.8008 24.036 19.6341 24.546 20.6949C24.7976 21.2185 24.5269 21.5598 24.3433 21.7162C24.074 21.9474 23.7055 22.0209 23.5056 21.8808C23.2853 21.7298 22.9983 21.7203 22.7712 21.8563C22.5427 21.9923 22.4149 22.2493 22.4434 22.5132C22.4897 22.9456 22.0939 23.1932 21.9225 23.2789C21.4873 23.4992 21.0331 23.4611 20.8631 23.3033C20.6727 23.1266 20.3993 23.0749 20.1572 23.1646C19.9152 23.2557 19.7465 23.4788 19.722 23.7372C19.6812 24.1832 19.3507 24.6116 18.9196 24.7789C18.7115 24.8578 18.4096 24.9054 18.139 24.6578C17.9704 24.5055 17.7364 24.447 17.5175 24.5001C17.2958 24.5544 17.1176 24.715 17.0401 24.9285C17.0143 24.9965 16.9558 25.1597 16.3193 25.1597C15.8664 25.1597 15.0518 24.8537 14.6533 24.5898C14.176 24.2757 11.1826 22.0426 8.59726 19.8774C8.23414 19.5714 7.60582 18.9159 7.05094 18.3365C6.5586 17.8224 6.10846 17.356 5.87724 17.1601C5.58756 16.9153 5.15916 16.9521 4.91844 17.2404C4.67638 17.5273 4.7117 17.9571 4.9987 18.1992C5.20953 18.3774 5.61753 18.8085 6.06766 19.2777C6.67425 19.9114 7.30116 20.5669 7.7228 20.9206C10.2551 23.0408 13.2988 25.3297 13.9053 25.7281C14.4058 26.0573 15.4843 26.5197 16.3194 26.5197C16.9898 26.5197 17.5053 26.366 17.8629 26.0654C18.3416 26.2518 18.8857 26.2531 19.4093 26.0491C20.0281 25.8097 20.5367 25.327 20.825 24.7422C21.3608 24.8564 21.9742 24.7762 22.5318 24.496C23.0772 24.2213 23.4715 23.8011 23.6674 23.3101C24.2087 23.3387 24.7662 23.1469 25.2273 22.7511C26.008 22.0834 26.2229 21.0444 25.7714 20.1074Z" fill="#FDB913"/>
<path d="M13.6008 8.83984H7.4808C7.10544 8.83984 6.80078 9.14451 6.80078 9.51987C6.80078 9.89523 7.10544 10.1999 7.4808 10.1999H13.6008C13.9762 10.1999 14.2808 9.89523 14.2808 9.51987C14.2808 9.14451 13.9762 8.83984 13.6008 8.83984Z" fill="#FDB913"/>
<path d="M27.764 18.6602C27.5531 18.3488 27.1316 18.2631 26.8201 18.4752L24.8318 19.8107C24.5204 20.0202 24.4374 20.4431 24.6469 20.7545C24.7788 20.9491 24.9937 21.0551 25.2127 21.0551C25.3419 21.0551 25.4738 21.0184 25.5908 20.9396L27.5791 19.6041C27.8904 19.3946 27.9734 18.9717 27.764 18.6602Z" fill="#FDB913"/>
<path d="M23.5433 21.9055C23.0564 21.522 20.879 19.293 19.5326 17.8895C19.2729 17.6175 18.8418 17.608 18.5711 17.8691C18.2991 18.1289 18.2909 18.5599 18.5507 18.8306C18.9002 19.1951 21.9833 22.4088 22.7001 22.9746C22.8238 23.0725 22.9734 23.1201 23.1203 23.1201C23.3202 23.1201 23.5201 23.0303 23.6561 22.8603C23.8887 22.5665 23.8384 22.1381 23.5433 21.9055Z" fill="#FDB913"/>
<path d="M20.8256 23.2694C20.011 22.6179 17.9642 20.4433 17.5018 19.9401C17.2461 19.6627 16.8177 19.6463 16.5402 19.8993C16.2641 20.1536 16.2451 20.5847 16.4994 20.8608C16.5239 20.8867 18.9665 23.5237 19.9756 24.3316C20.1007 24.4308 20.2517 24.4798 20.3999 24.4798C20.5985 24.4798 20.797 24.3914 20.9317 24.2255C21.1657 23.9317 21.1181 23.5033 20.8256 23.2694Z" fill="#FDB913"/>
<path d="M18.1202 24.639C17.1505 23.8217 15.1663 21.7096 14.7787 21.2947C14.5217 21.02 14.0905 21.0051 13.8172 21.2621C13.5425 21.5191 13.5288 21.9489 13.7845 22.2236C14.3421 22.8207 16.2407 24.8335 17.243 25.6794C17.3708 25.7868 17.5259 25.8399 17.6809 25.8399C17.874 25.8399 18.0672 25.7569 18.2018 25.5978C18.4439 25.3095 18.4072 24.8811 18.1202 24.639Z" fill="#FDB913"/>
<path d="M7.94784 7.66602C6.7823 6.56168 2.1216 6.20398 0.720821 6.12104C0.527722 6.11154 0.349541 6.17542 0.213562 6.30464C0.07752 6.43246 0 6.61198 0 6.79966V19.0397C0 19.415 0.304661 19.7197 0.680021 19.7197H4.76002C5.05378 19.7197 5.3149 19.5307 5.406 19.2505C5.50526 18.9458 7.84858 11.7542 8.15726 8.21816C8.17498 8.01142 8.0988 7.80742 7.94784 7.66602ZM4.2636 18.3597H1.35998V7.52864C3.54552 7.70134 5.90376 8.0767 6.76056 8.49286C6.40018 11.4713 4.76952 16.763 4.2636 18.3597Z" fill="#FDB913"/>
<path d="M31.9603 7.47998C26.6209 7.47998 23.6588 8.84678 23.5351 8.9039C23.3583 8.98684 23.2264 9.14054 23.172 9.32688C23.1176 9.51322 23.1448 9.71314 23.2468 9.87902C24.0872 11.2322 26.7188 18.7476 27.2248 20.5809C27.3064 20.876 27.5743 21.08 27.8803 21.08H31.9603C32.3357 21.08 32.6403 20.7753 32.6403 20.3999V8.15994C32.6403 7.78324 32.3357 7.47998 31.9603 7.47998ZM31.2803 19.72H28.389C27.7443 17.6201 25.8403 12.1448 24.7782 9.88176C25.8158 9.52954 28.0449 8.9243 31.2803 8.84818V19.72Z" fill="#FDB913"/>
</g>
<defs>
<clipPath id="clip0_647_4">
<rect width="32.64" height="32.64" fill="white"/>
</clipPath>
</defs>
</svg>
