<svg width="40" height="40" viewBox="0 0 40 40" fill="none" xmlns="http://www.w3.org/2000/svg">
<path d="M21.6668 9.99975L10.8365 12.1658C10.2315 12.2868 9.92904 12.3473 9.6827 12.4944C9.46492 12.6245 9.2797 12.8025 9.14116 13.015C8.98444 13.2554 8.91205 13.5552 8.76729 14.155L3.3335 36.6664M3.3335 36.6664L25.8449 31.2326C26.4447 31.0879 26.7446 31.0155 26.9849 30.8588C27.1974 30.7202 27.3754 30.535 27.5055 30.3172C27.6526 30.0709 27.7131 29.7684 27.8341 29.1634L30.0002 18.3331M3.3335 36.6664L15.9768 24.0231M34.7812 13.1141L26.8858 5.2187C26.2257 4.55867 25.8957 4.22866 25.5152 4.10501C25.1804 3.99625 24.8199 3.99625 24.4851 4.10501C24.1046 4.22866 23.7746 4.55867 23.1145 5.2187L21.8858 6.44746C21.2258 7.10749 20.8957 7.43751 20.7721 7.81805C20.6633 8.15279 20.6633 8.51337 20.7721 8.84811C20.8957 9.22866 21.2257 9.55867 21.8858 10.2187L29.7812 18.1141C30.4412 18.7742 30.7713 19.1042 31.1518 19.2278C31.4865 19.3366 31.8471 19.3366 32.1819 19.2278C32.5624 19.1042 32.8924 18.7742 33.5524 18.1141L34.7812 16.8854C35.4412 16.2253 35.7712 15.8953 35.8949 15.5148C36.0037 15.18 36.0037 14.8195 35.8949 14.4847C35.7712 14.1042 35.4412 13.7742 34.7812 13.1141ZM18.3335 18.3331C20.1744 18.3331 21.6668 19.8255 21.6668 21.6664C21.6668 23.5074 20.1744 24.9997 18.3335 24.9997C16.4925 24.9997 15.0002 23.5074 15.0002 21.6664C15.0002 19.8255 16.4925 18.3331 18.3335 18.3331Z" stroke="#FDB913" stroke-width="2" stroke-linecap="round" stroke-linejoin="round"/>
</svg>
