<svg width="40" height="40" viewBox="0 0 40 40" fill="none" xmlns="http://www.w3.org/2000/svg">
<path d="M15.0002 28.333L6.66683 36.6663M25.0002 28.333L33.3335 36.6663M20.0002 3.33301V6.66634M20.0002 36.6663V28.333M8.66683 28.333H31.3335C33.2003 28.333 34.1338 28.333 34.8468 27.9697C35.474 27.6501 35.9839 27.1402 36.3035 26.513C36.6668 25.7999 36.6668 24.8665 36.6668 22.9997V11.9997C36.6668 10.1328 36.6668 9.19941 36.3035 8.48637C35.9839 7.85917 35.474 7.34923 34.8468 7.02965C34.1338 6.66634 33.2003 6.66634 31.3335 6.66634H8.66683C6.79999 6.66634 5.86657 6.66634 5.15353 7.02965C4.52632 7.34923 4.01639 7.85917 3.69681 8.48637C3.3335 9.19941 3.3335 10.1328 3.3335 11.9997V22.9997C3.3335 24.8665 3.3335 25.7999 3.69681 26.513C4.01639 27.1402 4.52632 27.6501 5.15353 27.9697C5.86657 28.333 6.79999 28.333 8.66683 28.333Z" stroke="#FDB913" stroke-width="2" stroke-linecap="round" stroke-linejoin="round"/>
</svg>
