<svg width="40" height="40" viewBox="0 0 40 40" fill="none" xmlns="http://www.w3.org/2000/svg">
<path d="M7.50065 36.6663V28.333M7.50065 11.6663V3.33301M3.33398 7.49967H11.6673M3.33398 32.4997H11.6673M21.6673 4.99967L18.777 12.5144C18.307 13.7365 18.072 14.3475 17.7065 14.8615C17.3826 15.317 16.9846 15.715 16.5291 16.0389C16.0152 16.4043 15.4041 16.6394 14.1821 17.1094L6.66732 19.9997L14.1821 22.89C15.4041 23.36 16.0152 23.595 16.5291 23.9605C16.9846 24.2844 17.3826 24.6823 17.7065 25.1379C18.072 25.6518 18.307 26.2629 18.777 27.4849L21.6673 34.9997L24.5576 27.4849C25.0276 26.2629 25.2626 25.6518 25.6281 25.1379C25.952 24.6823 26.35 24.2844 26.8055 23.9605C27.3195 23.595 27.9305 23.36 29.1526 22.89L36.6673 19.9997L29.1525 17.1094C27.9305 16.6394 27.3195 16.4043 26.8055 16.0389C26.35 15.715 25.952 15.317 25.6281 14.8615C25.2626 14.3475 25.0276 13.7365 24.5576 12.5144L21.6673 4.99967Z" stroke="#FDB913" stroke-width="2" stroke-linecap="round" stroke-linejoin="round"/>
</svg>
